<svg xmlns="http://www.w3.org/2000/svg" width="13.215" height="13.21" viewBox="0 0 13.215 13.21">
    <g fill="#fff">
        <path stroke="#fff" stroke-width="0.1px" d="M11.506.494a1.79 1.79 0 0 0-2.53 0l-.633.637L1.6 7.868l-.014.014s0 .007-.007.007-.018.021-.025.032 0 0 0 .007l-.018.029s0 .007-.007.011-.007.018-.011.029 0 0 0 .007l-1.5 4.5a.352.352 0 0 0 .086.365.36.36 0 0 0 .254.1.422.422 0 0 0 .114-.018l4.494-1.5h.007a.129.129 0 0 0 .032-.014h.007l.036-.022c.011-.007.021-.018.032-.025s.007 0 .007-.007.011-.007.014-.014l7.374-7.374a1.79 1.79 0 0 0 0-2.529zM4.851 10.612l-2.49-2.49 6.233-6.233 2.49 2.49zm-2.84-1.828l2.175 2.175-3.267 1.087zm9.961-5.3l-.379.383L9.1 1.381 9.485 1A1.073 1.073 0 0 1 11 1l.973.973a1.077 1.077 0 0 1 0 1.517zm0 0" transform="translate(.054 .161) translate(.001 .029)"/>
    </g>
</svg>
