<svg xmlns="http://www.w3.org/2000/svg" width="14" height="14" viewBox="0 0 14 14">
    <path fill="#b6cfe9" d="M14.029 12.752l-3.451-3.466a5.519 5.519 0 0 0 1.374-3.634A5.763 5.763 0 0 0 6.1 0 5.763 5.763 0 0 0 .242 5.652 5.763 5.763 0 0 0 6.1 11.305a5.936 5.936 0 0 0 3.354-1.023l3.477 3.492a.783.783 0 0 0 1.08.02.72.72 0 0 0 .018-1.042zM6.1 1.475a4.259 4.259 0 0 1 4.327 4.178A4.259 4.259 0 0 1 6.1 9.83a4.259 4.259 0 0 1-4.33-4.178A4.259 4.259 0 0 1 6.1 1.475z" transform="translate(-.242)"/>
</svg>
